<svg width="368" height="123" viewBox="0 0 368 123" fill="none" xmlns="http://www.w3.org/2000/svg">
<path fill-rule="evenodd" clip-rule="evenodd" d="M100.97 23.7099C100.97 23.8902 100.97 24.1156 100.97 24.2959C101.06 24.7466 100.7 24.7917 100.7 25.1523C99.7531 25.3326 99.3474 24.972 98.6712 24.8819C98.536 24.341 97.8599 24.341 98.0853 23.4394C97.2288 20.825 99.4375 19.1572 101.015 20.825C101.331 22.0421 100.925 22.2224 100.97 23.7099Z" fill="#796FB3"/>
<path fill-rule="evenodd" clip-rule="evenodd" d="M105.072 29.4345C105.027 29.2993 104.892 29.2091 104.711 29.119C104.531 28.9387 104.306 28.8485 103.855 28.9387C103.72 29.9304 103.945 30.6065 105.027 30.3811C105.027 29.9754 105.162 29.7501 105.297 29.5247C105.252 29.5247 105.162 29.4796 105.072 29.4345Z" fill="#796FB3"/>
<path fill-rule="evenodd" clip-rule="evenodd" d="M105.342 31.8687H105.027C104.576 32.3194 104.711 33.1759 105.613 33.0407C105.883 33.0407 105.974 32.8153 106.199 32.7702C106.244 32.0941 105.974 31.8236 105.342 31.8687Z" fill="#796FB3"/>
<path opacity="0.7" fill-rule="evenodd" clip-rule="evenodd" d="M163.581 0C163.986 0 164.347 0 164.753 0C165.429 2.52425 167.683 3.47085 168.809 5.54434C168.223 6.13033 167.818 6.89662 167.953 8.15875C169.35 8.29397 169.936 7.61783 171.424 7.88829C171.469 8.97011 171.739 8.69966 171.424 9.64625C175.796 9.5561 177.734 11.855 181.025 12.8466C180.078 16.4076 175.571 15.3258 172.01 15.7766C171.784 18.4361 174.895 17.7599 175.481 19.563C175.436 20.1039 175.3 20.5546 174.895 20.7349C172.821 20.0588 171.063 22.2224 169.08 21.5914C169.26 22.0872 168.719 23.3043 169.35 23.3493C169.35 23.5296 169.35 23.755 169.35 23.9353C169.26 23.9353 169.17 23.9353 169.08 23.9353C169.125 23.5747 169.035 23.4395 168.809 23.3493C168.719 22.9887 168.314 22.8986 168.223 22.4929C167.908 21.9069 167.728 21.2308 167.051 21.0505C162.995 20.6899 158.307 18.0304 155.106 19.8785C152.131 21.5914 153.213 26.8653 151.049 29.7501C150.148 30.9221 148.706 30.6967 147.849 32.0941C147.849 34.8888 147.218 37.0975 146.407 39.0808C146.136 39.0808 146.181 39.4414 146.136 39.6668C145.731 39.757 145.911 40.388 145.866 40.8388C144.559 40.6585 144.063 41.3346 142.665 41.1093C142.62 40.7486 141.809 40.7486 141.809 41.1093C141.088 41.0642 140.592 41.2445 140.366 41.6952C140.006 41.6502 139.871 41.7403 139.78 41.9657C138.023 42.1009 137.707 43.318 136.31 43.1377C135.228 40.8388 131.667 40.974 129.909 39.3513C129.098 39.1259 129.323 39.9373 128.737 39.9373C128.241 40.2077 127.835 40.5683 127.565 41.1093C127.204 42.1009 125.942 42.1911 125.807 43.4532C125.401 43.4983 125.717 44.3097 125.221 44.3097C122.246 44.7153 117.423 43.2729 116.206 45.4816C111.878 44.8956 110.301 41.4699 108.949 37.9089C110.256 38.5399 111.022 39.7119 112.419 40.2528C114.673 38.5399 116.251 41.7403 118.82 40.5233C120.758 37.5933 119.541 32.7251 123.463 31.5081C125.356 30.9221 127.385 31.6433 129.007 31.2376C134.732 29.6149 138.203 22.538 140.952 18.1656C145.325 18.391 146.587 13.9735 151.14 16.1372C151.59 15.416 152.582 15.2807 152.312 13.7932C152.041 12.8016 150.463 13.1171 150.283 12.0353C152.943 12.441 153.574 10.8633 155.512 10.5928C156.639 6.44586 159.073 3.69623 161.642 0.991671C162.364 1.21705 161.778 2.79471 162.814 2.74963C163.175 1.93827 163.13 0.766291 163.581 0Z" fill="#796FB3"/>
<path d="M155.377 77.6208C155.242 77.8912 155.106 78.1617 154.791 78.2068C153.844 79.1984 151.545 78.8378 150.418 79.6492C149.968 80.2352 149.021 80.3704 148.39 80.8212C148.3 80.8212 148.21 80.8212 148.12 80.8212C147.714 81.0916 147.038 81.0916 146.948 81.6776C146.948 81.7678 146.948 81.8579 146.948 81.9481C146.407 81.903 146.317 82.2636 145.776 82.2185C145.009 81.9932 146.857 77.2602 144.333 77.2602C144.108 77.2151 143.747 77.2602 143.747 76.9897C143.702 76.0431 142.846 74.4204 141.719 75.5473C141.719 75.6375 141.719 75.7276 141.719 75.8178C140.817 75.5924 140.862 76.3136 139.961 76.0882C137.977 76.6742 136.625 76.0431 135.588 74.9162C135.228 74.3302 134.732 73.8344 134.146 73.4738C133.966 72.7526 132.659 73.3386 132.974 74.0598C132.974 74.1499 132.974 74.2401 132.974 74.3302C132.974 74.5105 132.929 74.6909 132.704 74.6007C132.027 75.1867 131.892 76.3136 130.36 76.0431C129.503 76.0431 129.368 75.2768 128.602 75.1867C128.557 75.4121 128.376 75.5022 128.016 75.4571C127.61 75.7276 126.934 75.7276 126.844 76.3136C126.618 76.7643 125.897 76.7193 125.401 76.8996C125.356 76.3587 124.455 76.7193 124.545 76.0431C124.545 75.2768 124.545 74.5106 124.545 73.6992C124.274 73.4738 123.869 73.3837 123.373 73.4287C122.471 73.6541 122.516 72.9329 121.615 73.1583C121.615 73.0681 121.615 72.978 121.615 72.8878C119.677 72.5723 116.521 73.609 113.456 73.1583C112.464 72.4821 113.366 69.9579 112.284 69.3719C112.104 69.3719 111.924 69.3268 112.014 69.1014C111.969 68.1999 113.05 67.7942 112.284 67.073C112.284 66.487 111.473 66.7124 111.698 65.901C110.842 64.5488 112.194 60.9427 110.842 60.0863C110.661 60.0863 110.481 60.0412 110.571 59.8158C109.895 59.7256 109.354 59.2298 108.813 59.8158C108.633 59.8158 108.408 59.8158 108.227 59.8158C107.822 59.8158 107.461 59.8158 107.055 59.8158C106.92 58.9143 107.822 59.0495 107.912 58.3734C107.686 57.6071 106.56 57.7874 106.154 57.2014C105.883 57.0662 105.613 56.9309 105.568 56.6154C105.478 56.0294 104.802 56.0294 104.711 55.4434C104.441 53.0995 105.793 51.0711 104.711 49.6286C104.621 49.0426 103.945 49.0426 103.855 48.4567C103.494 46.9692 102.863 45.7521 102.999 43.8138C102.999 43.6335 102.999 43.4082 102.999 43.2278C103.404 42.9574 103.585 42.4616 103.855 42.0559C103.855 41.8756 103.9 41.6953 104.125 41.7854C104.531 41.6953 104.351 41.0642 104.396 40.6134C104.171 39.8021 104.802 39.8472 104.666 39.171C104.757 39.171 104.847 39.171 104.937 39.171C105.703 38.1793 106.56 37.3229 107.551 36.5566C107.957 36.5566 108.272 36.5566 108.408 36.8271C109.67 39.4865 111.112 41.4699 112.78 43.8138C116.206 44.6703 120.353 42.6419 124.996 42.9574C125.491 42.9574 125.176 42.146 125.582 42.101C126.889 40.7937 127.88 39.171 129.638 38.3146C131.487 39.9824 134.777 40.1627 136.31 42.101C137.842 42.101 138.518 41.1994 139.51 40.6585C139.555 40.4331 139.735 40.2979 140.096 40.3881C140.817 40.4331 141.313 40.2528 141.538 39.8021C141.538 39.4415 142.35 39.4415 142.395 39.8021C143.296 40.7036 144.649 39.5316 145.866 39.8021C146.407 39.2612 145.911 39.0809 145.866 38.3596C145.911 38.1343 145.866 37.7737 146.136 37.7737C147.579 36.3312 147.759 33.5816 147.894 30.7869C153.348 29.7952 151.14 21.0956 155.151 18.8418C158.307 17.0838 163.806 19.563 167.367 20.5997C167.367 20.6899 167.367 20.78 167.367 20.8702C167.637 21.366 167.998 21.7717 168.539 22.0422C168.764 22.0872 168.9 22.2675 168.809 22.6281C168.809 23.3944 168.9 24.296 168.539 24.6566C168.539 24.927 168.314 25.0172 168.268 25.2425C167.367 25.1975 167.277 26.0088 167.097 26.685C167.006 26.685 166.916 26.685 166.826 26.685C166.33 26.6399 166.33 28.488 166.826 28.4429C166.916 28.4429 167.006 28.4429 167.097 28.4429C167.097 28.8486 167.232 29.074 167.367 29.2994C167.367 29.3895 167.367 29.4797 167.367 29.5698C167.998 30.4714 168.809 31.2376 169.711 31.9138C170.793 32.8153 170.387 33.1759 169.981 34.5282C169.981 34.7986 169.981 35.1142 169.981 35.3846C169.891 35.3846 169.801 35.3846 169.711 35.3846C169.621 35.3846 169.531 35.3846 169.44 35.3846C169.26 36.8271 170.207 37.1426 170.883 37.7286C170.928 38.3596 171.604 38.3596 172.325 38.3146C173.497 39.4865 174.714 40.6134 176.112 41.515C176.653 42.146 177.239 42.6869 176.968 44.1294C176.067 45.0309 174.579 44.5801 173.182 44.3998C172.911 44.3998 172.596 44.3998 172.325 44.3998C172.325 44.3097 172.325 44.2195 172.325 44.1294C172.37 43.6335 170.522 43.6335 170.567 44.1294C170.567 44.2195 170.567 44.3097 170.567 44.3998C170.162 44.3998 169.936 44.535 169.711 44.6703C169.621 44.6703 169.531 44.6703 169.44 44.6703C168.945 44.9407 168.539 45.3013 168.268 45.8423C168.268 45.9324 168.268 46.0226 168.268 46.1127C168.268 46.293 168.223 46.4733 167.998 46.3832C166.42 48.5919 166.826 53.4601 167.412 56.2548C167.367 56.4802 167.412 56.8408 167.142 56.8408C166.511 57.4718 165.564 56.39 165.113 57.4268C165.113 57.7874 164.753 57.8325 164.843 58.2832C164.753 58.2832 164.662 58.2832 164.572 58.2832C163.941 58.5987 163.806 59.4552 163.13 59.7256C163.13 59.8158 163.13 59.9059 163.13 59.9961C162.048 59.6806 162.318 60.7173 161.372 60.5821C160.335 60.7173 159.794 61.3033 159.343 62.0245C159.253 62.4302 158.848 62.5204 158.757 62.881C158.757 62.9711 158.757 63.0613 158.757 63.1514C158.757 63.2416 158.757 63.3317 158.757 63.4219C158.667 63.4219 158.577 63.4219 158.487 63.4219C157.991 63.3768 157.991 65.2249 158.487 65.1798C158.577 65.1798 158.667 65.1798 158.757 65.1798C158.803 65.4052 158.757 65.7658 159.028 65.7658C159.028 65.9461 159.028 66.1715 159.028 66.3518C159.298 66.7575 159.524 67.2083 159.884 67.5238C160.2 69.2817 159.073 69.5973 159.028 70.9946C158.757 71.22 158.848 71.806 158.442 71.8511C157.766 72.2568 157.495 73.0681 157 73.609C157 73.6992 157 73.7893 157 73.8795C156.864 74.4204 156.368 74.6007 156.414 75.3219C156.098 75.4121 156.233 75.9079 155.828 75.9079C155.377 76.2234 155.873 77.4405 155.377 77.6208Z" fill="#796FB3"/>
<path fill-rule="evenodd" clip-rule="evenodd" d="M20.9603 17.0837C20.9603 17.264 20.9603 17.4894 20.9603 17.6697C20.6899 17.6697 20.5997 17.8951 20.3743 17.9402C19.9236 17.7148 19.9236 19.2925 20.3743 19.1122C20.5546 19.1122 20.7349 19.1572 20.6448 19.3826C21.8168 20.3743 22.6281 18.436 23.5747 19.6531C23.8001 19.6981 23.8903 19.8784 23.8452 20.2391C23.8903 20.6898 23.7099 21.366 24.1156 21.411C23.9804 22.3125 24.8368 22.2224 25.2876 22.583C25.5581 23.0788 25.9187 23.4845 26.4596 23.755C26.5497 23.755 26.6399 23.755 26.73 23.755C26.73 23.8451 26.73 23.9353 26.73 24.0254C26.73 24.1156 26.73 24.2057 26.73 24.2959C26.9103 25.0622 27.5414 25.4228 27.902 26.0539C29.074 26.0088 30.291 26.0088 31.1024 26.3243C31.6433 26.73 32.1391 27.2258 32.5448 27.7667C33.221 27.8569 32.7251 29.1641 33.7168 28.9387C33.8971 28.9387 34.0774 28.9838 33.9873 29.2092C34.7986 29.4345 35.1142 30.2008 35.7452 30.6516C35.8354 30.6516 35.9255 30.6516 36.0157 30.6516C35.9706 31.3728 36.4664 31.5531 36.6017 32.094C36.9623 32.1391 37.413 32.049 37.4581 32.3645C39.3062 32.4546 37.7736 34.3027 39.2161 34.9789C39.5316 35.024 39.6668 35.2944 39.8021 35.5649C39.8021 35.655 39.8021 35.7452 39.8021 35.8353C39.8021 35.9255 39.8021 36.0156 39.8021 36.1058C40.343 36.827 41.1093 37.3228 41.8305 37.8637C42.1911 37.8187 42.6418 37.9088 42.6869 37.5933C43.318 37.1425 42.8221 35.5649 43.5434 35.2493C44.5801 35.8804 45.0309 37.0524 45.8873 37.8637C45.8873 38.4497 45.8873 39.0357 45.8873 39.6217C46.4733 40.2077 47.7805 40.0725 48.5017 40.4782C48.8623 40.5232 49.3131 40.4331 49.3582 40.7486C49.4483 41.1543 50.0794 40.974 50.5301 41.0191C51.2063 41.5149 51.7923 42.1009 52.2881 42.777C52.7389 43.0024 52.9192 43.4982 52.8741 44.2195C52.8741 44.9857 52.6938 45.9323 53.4601 45.9774C54.0461 46.7437 54.001 46.8339 55.218 46.5634C56.3449 46.6986 56.6605 46.0225 57.8324 46.2929C57.8775 46.5183 57.8324 46.8789 58.1029 46.8789C58.148 47.1043 58.3283 47.2395 58.6889 47.1494C58.8692 47.1494 59.0495 47.1945 58.9593 47.4198C59.1847 47.8706 59.6805 48.0509 60.4018 48.0058C60.6271 48.0509 60.9878 48.0058 60.9878 48.2763C61.9794 49.0426 63.2866 49.4483 63.9177 50.6202C64.0078 50.6202 64.098 50.6202 64.1881 50.6202C64.1881 50.8005 64.1881 51.0259 64.1881 51.2062C64.8643 53.2346 60.9878 52.243 61.8442 53.5502C61.8893 53.7756 62.0696 53.9108 62.4302 53.8206C62.6105 53.8206 62.7908 53.8657 62.7006 54.0911C62.7006 54.1812 62.7006 54.2714 62.7006 54.3615C63.4219 54.3165 63.9177 54.4968 64.1431 54.9475C64.0529 55.3532 63.512 55.2631 63.2866 55.5335C63.0162 55.849 62.2048 55.6237 62.4302 56.39C62.4302 56.4801 62.4302 56.5703 62.4302 56.6604C62.34 57.0661 62.0245 57.2013 62.1597 57.8324C62.5203 60.7623 66.8927 59.6805 69.1465 60.7623C69.3268 61.6638 68.7859 63.2866 69.417 63.6923C69.5071 63.6923 69.5973 63.6923 69.6874 63.6923C69.5522 64.5938 70.0931 64.8192 70.2734 65.4502C70.2734 65.5404 70.2734 65.6305 70.2734 65.7207C70.4086 66.8927 72.5723 67.1631 71.7158 68.3351C71.5806 68.6957 71.4003 69.0112 71.1298 69.1915C70.4537 69.5071 71.0397 71.0396 70.8594 71.8059C71.6707 71.851 72.437 71.851 72.3018 70.9495C72.2117 70.2733 73.1583 70.634 73.1583 70.093C75.0064 69.8677 77.3954 69.3718 78.1166 70.9495C78.2068 70.9495 78.2969 70.9495 78.3871 70.9495C78.3871 71.0396 78.3871 71.1298 78.3871 71.2199C78.3871 71.3101 78.3871 71.4002 78.3871 71.4904C79.0632 72.6173 80.3253 73.2484 81.0015 74.4203C81.317 74.7809 81.317 75.4571 81.2719 76.1783C81.4973 77.0798 80.4606 76.7192 80.6859 77.6207C80.5958 77.6207 80.5056 77.6207 80.4155 77.6207C79.514 78.973 80.9113 80.8211 80.145 82.2635C80.0549 82.2635 79.9647 82.2635 79.8746 82.2635C79.8746 82.8495 79.0632 82.6242 79.2886 83.4355C79.2435 84.1567 79.4238 84.6526 79.8746 84.878C79.8295 85.4189 80.1901 85.509 80.145 86.0499C80.0098 87.1768 80.6859 87.4473 80.4155 88.6643C80.4155 88.8446 80.4155 89.07 80.4155 89.2503C80.4155 89.6109 80.0549 89.656 80.145 90.1068C80.0549 90.1068 79.9647 90.1068 79.8746 90.1068C79.0181 91.414 80.0999 94.6144 79.2886 95.9216C79.1984 95.9216 79.1083 95.9216 79.0181 95.9216C78.0265 95.2003 77.5306 93.8931 76.4037 93.3072C75.998 92.5859 74.5105 93.1268 74.9613 94.1636C74.9162 94.5242 75.0064 94.975 74.6908 95.02C74.5105 95.606 73.3836 95.9216 73.2484 95.02C73.5639 93.0818 71.806 93.1719 70.3185 92.9916C70.2734 93.3522 69.8226 93.6678 70.3185 93.8481C70.4086 93.8481 70.4988 93.8481 70.5889 93.8481C70.5889 94.0284 70.5889 94.2538 70.5889 94.4341C70.5889 94.9299 70.5889 95.4257 70.5889 95.8765C70.5889 95.9666 70.5889 96.0568 70.5889 96.1469C68.4704 93.8931 66.3518 91.6393 64.1881 89.4757C64.098 89.4757 64.0078 89.4757 63.9177 89.4757C63.5571 89.3405 63.2415 89.1602 63.0612 88.8897C63.0162 88.3488 62.0696 88.7094 61.8893 88.3037C61.123 87.8079 60.6271 87.0416 59.8609 86.5458C59.4101 86.4105 59.1396 86.095 58.6889 85.9598C58.2381 85.5992 57.5169 85.5992 57.2464 85.1033C56.8408 84.4272 56.0294 84.1567 55.4885 83.6609C55.0828 83.4806 54.7673 83.2101 54.632 82.8045C54.1813 82.3537 54.0911 81.5874 53.4601 81.362C52.6938 81.317 53.0544 80.2351 52.2881 80.1901C52.2881 80.0999 52.2881 80.0098 52.2881 79.9196C52.3332 79.1984 51.8373 79.0181 51.4316 78.7476C50.9809 78.3419 50.5301 77.9363 49.9892 77.5757C49.6286 76.9897 49.1328 76.4938 48.5468 76.1332C48.2763 76.1332 48.1862 75.9078 47.9608 75.8628C48.0059 75.3219 47.6453 75.2317 47.6903 74.6908C47.6903 74.195 47.465 73.9245 47.1044 73.8344C46.9241 73.4287 46.6536 73.1131 46.2479 72.9779C45.8422 72.3018 45.0309 72.0313 44.49 71.5355C43.4081 70.8593 43.4983 69.0112 43.0475 67.7491C42.9574 67.7491 42.8672 67.7491 42.7771 67.7491C42.7771 67.4786 42.7771 67.1631 42.7771 66.8927C42.8221 66.1714 42.6418 65.6756 42.1911 65.4502C41.6051 65.3601 41.9206 64.3684 41.3346 64.2783C41.2896 63.7373 41.1543 63.2866 40.7487 63.1063C40.7487 62.7006 40.6134 62.4752 40.4782 62.2498C40.0725 61.7089 40.0725 60.7172 39.3062 60.4919C39.3513 59.951 38.9907 59.8608 39.0358 59.3199C38.7202 58.5987 38.5399 57.6521 37.8638 57.2915C37.6384 57.2464 37.5032 57.0661 37.5933 56.7055C35.4748 53.5502 32.4096 51.4316 29.7501 48.8623C29.1641 48.7721 29.4797 47.7805 28.8937 47.6903C29.1191 46.7888 28.3978 46.8339 28.6232 45.9323C28.5781 44.2195 28.3077 42.7319 27.7668 41.56C27.5865 41.56 27.4062 41.5149 27.4963 41.2895C27.5865 40.4331 26.8202 40.388 26.9103 39.5316C26.9103 39.0357 26.685 38.7653 26.3244 38.6751C26.144 38.6751 25.9637 38.63 26.0539 38.4047C26.0539 38.3145 26.0539 38.2244 26.0539 38.1342C25.6933 37.5031 25.1975 37.0524 24.6115 36.6918C24.5213 36.6918 24.4312 36.6918 24.341 36.6918C23.9804 36.6918 23.9353 36.3312 23.4846 36.4213C23.4846 36.3312 23.4846 36.241 23.4846 36.1509C22.6732 35.7001 21.4561 35.655 20.2842 35.5649C20.2391 35.024 19.3376 35.3846 19.4277 34.7084C19.2474 33.8971 19.7883 32.4096 19.1573 32.094C19.0671 32.094 18.977 32.094 18.8868 32.094C18.8868 31.1925 18.2558 30.9671 18.0304 30.3361C18.0304 30.2459 18.0304 30.1558 18.0304 30.0656C15.3258 27.5414 12.9368 24.927 9.87163 22.8985C9.64625 22.8535 9.28565 22.8985 9.28565 22.6281C8.92504 22.0421 8.33905 21.6364 7.52768 21.4561C7.25723 21.0504 6.76139 20.8701 6.35571 20.5997C6.04018 20.5546 5.90495 20.2841 5.76972 20.0137C4.59775 18.3008 3.02009 16.9485 1.71289 15.3709C1.84811 13.5678 1.62274 12.1254 0.540913 11.5845C0.495837 11.2689 0.225381 11.1337 -0.0450745 10.9985C1.93827 10.5477 5.63449 10.9534 6.62616 12.4409C6.53601 13.2072 7.03185 13.3875 7.79814 13.2974C9.46595 13.8833 11.8099 14.7398 13.6129 13.5678C13.8834 13.5678 14.1989 13.5678 14.4694 13.5678C14.6948 13.6129 15.0554 13.5678 15.0554 13.8383C15.461 14.5144 17.0838 13.9284 17.9853 14.1087C18.3459 14.1538 18.7967 14.0637 18.8417 14.3792C19.9686 14.9652 19.8785 16.5879 20.9603 17.0837Z" fill="#796FB3"/>
<path d="M110.301 101.917C110.301 101.917 109.174 100.7 108.949 100.024C108.723 99.3474 108.182 98.1754 107.731 98.0853C107.281 98.0402 105.478 97.95 105.478 97.95C105.478 97.95 104.711 98.2205 104.261 98.2205C103.81 98.2205 101.241 97.2288 101.241 97.2288C101.241 97.2288 101.15 96.733 100.88 96.5527C100.564 96.3724 100.564 96.1921 100.294 96.0118C100.024 95.8765 99.7531 95.6512 99.7531 95.6512C99.7531 95.6512 99.6629 95.7864 99.3023 95.7864C98.9417 95.7864 98.3106 95.1103 98.3106 95.1103L97.4091 95.3356L96.733 95.7864C96.733 95.7864 97.4091 95.8765 96.2822 95.8765C95.1553 95.8765 93.6227 96.1019 93.1269 95.7413C92.6311 95.3807 91.6845 94.7046 91.6845 94.7046L90.6026 94.344C90.6026 94.344 90.2871 94.2989 89.9265 94.6595C89.5659 95.0201 89.1602 95.7864 89.1602 96.4175C89.1602 97.0485 88.2587 99.6178 88.0333 99.9334C87.8079 100.249 87.3121 100.925 86.8163 100.97C86.3204 101.06 85.9147 100.88 85.5091 100.384C85.1484 99.8432 84.0666 99.3474 83.9314 100.024C83.7962 100.7 84.3822 101.466 84.3822 101.466C84.3822 101.466 84.292 101.736 84.9231 101.962C85.5992 102.187 87.267 102.277 87.853 102.322C88.439 102.413 89.7913 102.548 90.7379 102.728C91.6845 102.908 91.8648 102.638 92.4958 103.359C93.1269 104.125 93.0818 105.568 93.803 106.154C94.5242 106.74 96.3273 107.641 96.3273 107.641C96.3273 107.641 97.8599 106.92 98.5811 106.92C99.3474 106.92 99.7981 106.334 100.204 106.92C100.609 107.506 101.736 108.363 101.736 108.363C101.736 108.363 106.064 109.715 107.191 109.715C108.317 109.715 108.678 109.625 110.121 109.084C111.608 108.543 113.231 108.047 113.231 108.047C113.231 108.047 115.935 108.498 119 109.85C122.021 111.202 124.365 112.555 125.041 112.645C125.762 112.735 129.503 113.005 129.503 113.005H130.585C130.585 113.005 131.757 112.78 132.027 113.005C132.298 113.231 132.613 113.501 132.613 113.501L134.146 113.231L136.174 113.772C136.174 113.772 137.211 114.222 137.527 114.222C137.842 114.222 139.285 113.862 139.285 113.862L140.412 113.772H144.559C144.559 113.772 146.271 113.636 146.632 113.907C146.993 114.222 147.669 114.583 148.345 114.899C149.021 115.169 149.652 115.394 150.463 115.53C151.275 115.665 152.312 116.116 153.033 116.025C153.799 115.935 152.943 114.673 152.492 113.501C152.041 112.329 152.762 111.473 152.762 111.473C152.762 111.473 154.61 109.58 153.303 108.543C151.996 107.461 148.976 107.01 148.976 107.01C148.976 107.01 148.435 107.371 147.804 107.641C147.173 107.912 146.181 108.047 145.776 108.047C145.415 108.047 142.079 106.785 141.629 106.289C141.178 105.793 140.862 104.982 140.862 104.982C140.862 104.982 140.141 102.908 137.707 102.097C135.228 101.286 132.704 100.745 132.343 100.745C131.982 100.745 130.81 100.204 130.315 100.204C129.774 100.204 128.557 99.4826 128.557 99.4826C128.557 99.4826 127.52 97.905 127.114 97.905C126.754 97.905 125.221 97.3641 124.86 97.7697C124.5 98.1754 124.229 100.249 124.229 101.331C124.229 102.413 123.283 103.269 121.119 102.773C118.955 102.232 119.136 102.999 116.702 102.187C114.268 101.376 114.042 100.835 113.366 101.105C112.69 101.376 111.247 101.646 110.932 101.827C110.661 102.052 110.301 101.917 110.301 101.917Z" fill="#796FB3"/>
<path d="M180.845 31.8687C180.845 31.463 181.205 31.1024 181.611 31.1024L180.845 31.8687Z" fill="#796FB3"/>
<path d="M184.18 70.003C184.18 70.003 184.721 69.5522 184.992 69.0113C185.262 68.5155 185.037 67.2984 185.262 66.8477C185.487 66.442 185.983 66.0363 185.983 66.0363C185.983 66.0363 186.164 66.0363 186.479 64.5488C186.795 63.0613 185.578 63.2416 186.344 60.9878C187.065 58.734 187.471 58.148 187.471 58.148L188.463 57.0662L189.229 55.9393C189.229 55.9393 189.634 56.1647 189.634 54.2715C189.634 52.3783 189.139 52.0177 189.139 51.5669C189.139 51.1162 188.643 50.2597 190.085 50.5302C191.528 50.8006 189.725 48.3665 190.536 47.7805C191.347 47.1945 192.159 47.1044 192.024 46.293C191.888 45.4817 192.023 45.1661 192.835 44.9858C193.646 44.8506 193.646 43.4532 194.503 44.49C195.314 45.4817 196.441 43.904 196.621 43.5885C196.802 43.2729 197.207 42.2362 198.154 41.7854C199.055 41.3347 199.506 41.2445 199.912 41.2445C200.272 41.2445 202.166 41.9657 202.526 42.3714C202.932 42.7771 202.256 42.687 204.059 43.2729C205.862 43.8589 206.853 43.1377 207.349 43.1377C207.845 43.1377 211.046 44.0392 211.046 44.0392C211.046 44.0392 211.316 44.6703 211.812 44.6703C212.308 44.6703 213.254 44.3097 213.57 44.2646C213.885 44.1745 216.274 44.3548 217.446 44.6703C218.573 44.9858 219.069 45.8873 222.044 44.3097C225.019 42.732 223.532 43.4983 223.847 43.1828C224.208 42.8673 225.154 41.9657 225.605 41.1994C226.011 40.4332 226.191 39.8922 226.642 39.8472C227.093 39.757 228.625 38.1343 228.625 38.1343L229.211 37.954L230.023 38.7203C230.023 38.7203 230.699 39.0358 230.699 39.6218C230.699 40.2078 231.149 40.2078 230.158 41.3798C229.166 42.5067 229.256 42.732 228.851 43.3631C228.49 43.9491 228.265 43.4983 227.183 44.49C226.146 45.4817 225.83 46.293 225.65 46.879C225.515 47.465 224.929 48.637 224.929 48.637C224.929 48.637 222.946 48.8624 222.315 49.1328C221.683 49.4033 219.926 49.7639 219.159 49.7188C218.393 49.6287 216.5 49.4033 215.779 48.9525C215.057 48.5018 215.373 47.9608 214.561 47.9158C213.75 47.8256 213.344 47.5101 212.263 47.5101C211.181 47.5101 209.874 48.2313 209.152 48.2313C208.386 48.2313 207.124 48.2313 206.448 48.1411C205.772 48.051 204.059 48.5919 204.059 48.5919C204.059 48.5919 203.247 47.7805 202.842 47.7805C202.436 47.7805 201.039 47.8707 201.039 47.8707L200.272 47.9608C200.272 47.9608 200.272 48.4116 199.281 48.5468C198.289 48.6821 197.793 48.0961 197.793 48.0961L196.17 47.3749C196.17 47.3749 195.089 47.2847 194.367 48.0961C193.646 48.9074 193.015 51.026 192.88 51.7472C192.745 52.4234 192.294 53.2798 192.294 53.2798C192.294 53.2798 192.114 53.8207 192.114 54.3165C192.114 54.8124 191.753 54.4969 192.474 55.6688C193.195 56.8408 192.339 56.1647 193.646 57.1563C194.953 58.148 194.097 56.931 195.675 59.0495C197.252 61.1681 195.089 60.492 196.711 61.1681C198.379 61.8442 198.514 61.9344 198.875 61.9344C199.281 61.9344 199.506 61.709 199.506 61.709C199.506 61.709 201.174 60.3567 201.489 60.2215C201.805 60.0863 201.76 58.0128 202.797 57.8775C203.833 57.7423 204.87 57.6972 205.186 58.0128C205.501 58.3283 204.735 58.6889 205.636 58.5988C206.538 58.5086 207.71 57.3817 208.206 57.1563C208.702 56.931 209.693 56.5253 210.009 56.7056C210.324 56.8859 210.324 57.0211 210.91 56.8859C211.496 56.7056 211.902 56.7056 212.713 56.2097C213.525 55.7139 214.246 55.5336 214.697 55.5336C215.147 55.5336 215.688 54.7222 216.139 55.5336C216.59 56.345 216.86 56.4802 216.86 56.8859V57.7874C216.86 57.7874 217.401 58.3734 216.59 58.5086C215.779 58.6889 213.885 58.3283 213.57 58.3283C213.254 58.3283 212.804 58.7791 212.218 59.4101C211.677 60.0412 209.829 62.2048 209.829 62.2048C209.829 62.2048 209.513 62.8359 209.243 63.1064C208.927 63.3768 209.152 63.1514 207.259 63.467C205.366 63.7825 205.682 62.9261 205.05 64.098C204.419 65.27 203.878 65.5855 203.878 65.5855C203.878 65.5855 204.014 65.6757 203.428 65.6757C202.842 65.6757 201.264 64.9094 201.264 64.9094C201.264 64.9094 203.157 67.5238 203.653 67.7041C204.149 67.8844 205.952 69.7776 206.358 70.589C206.763 71.4003 206.989 71.4905 207.349 71.8962C207.665 72.3018 208.702 72.2117 208.702 72.7977C208.702 73.3837 208.792 73.2935 208.792 73.6992C208.792 74.1049 208.702 74.3753 208.611 75.367C208.521 76.3587 207.53 76.5841 208.296 77.6659C209.062 78.7477 209.558 79.4689 210.054 79.8295C210.55 80.1901 210.369 80.3704 210.955 80.5507C211.541 80.731 210.054 80.5057 211.767 80.8212C213.525 81.1367 213.975 81.1367 214.336 81.1367C214.697 81.1367 215.553 80.686 215.643 81.1367C215.733 81.5875 215.733 81.903 215.733 81.903C215.733 81.903 216.094 82.1284 215.418 82.3989C214.742 82.6693 214.426 82.8045 214.426 82.8045L212.533 83.7962L211.857 84.1118C211.857 84.1118 211.226 83.9314 210.865 84.1118C210.55 84.2921 208.521 84.6977 208.521 84.6977C208.521 84.6977 208.521 84.833 207.98 85.1936C207.439 85.5993 207.304 85.8697 207.214 86.1852C207.124 86.5008 207.169 86.4106 206.899 86.9065C206.628 87.4023 205.366 88.3489 204.284 87.9883C203.202 87.6277 202.797 86.3205 202.797 86.3205C202.797 86.3205 202.03 83.9765 202.211 83.5258C202.391 83.075 203.067 83.4356 202.661 82.4439C202.211 81.4523 201.85 81.7678 200.768 80.7761C199.686 79.7845 198.695 79.3337 198.695 78.8829C198.695 78.4322 197.523 78.9731 198.379 76.6291C199.191 74.2852 199.145 74.6458 199.416 73.9246C199.686 73.2034 199.596 72.3469 199.506 72.0314C199.416 71.7159 199.506 71.0848 198.605 70.634C197.703 70.1833 196.396 70.8594 195.63 71.3553C194.863 71.8511 194.232 72.4371 194.052 72.978C193.872 73.5189 193.736 74.0147 193.736 74.5106C193.736 75.0064 193.466 73.6992 194.052 75.5924C194.638 77.4856 194.728 77.3053 194.728 78.6576C194.728 80.0098 194.863 82.0833 194.863 82.6242C194.863 83.1652 194.773 85.9148 194.773 85.9148C194.773 85.9148 194.728 85.2837 194.322 86.9065C193.872 88.5292 193.466 89.0701 194.052 90.5576C194.638 92.0451 194.863 91.955 194.863 92.2705C194.863 92.6311 195.99 92.3606 193.511 92.7663C191.032 93.172 190.626 93.5326 190.626 93.5326L190.085 94.0735C190.085 94.0735 188.463 95.9216 187.471 92.8114C186.479 89.7012 185.082 91.8197 186.795 89.3406C188.508 86.8614 188.598 85.9599 188.598 85.9599C188.598 85.9599 188.508 85.3288 188.508 84.6527C188.508 83.9765 188.057 83.7511 188.508 82.8496C188.958 81.9481 189.048 81.0466 189.048 81.0466C189.048 81.0466 188.688 80.1 188.147 79.7394C187.606 79.3788 187.065 77.756 187.065 77.756C187.065 77.756 187.877 77.5757 187.065 77.2151C186.254 76.8545 184.631 76.4939 184.451 77.2151C184.27 77.9363 184.135 78.6576 183.549 77.9363C182.963 77.2151 182.242 76.3587 182.197 76.0432C182.107 75.7276 182.062 75.3219 182.107 74.9613C182.197 74.6007 182.377 73.9246 182.377 73.9246C182.377 73.9246 182.197 73.7443 182.197 73.3386C182.197 72.9329 181.16 73.3837 182.107 71.8511C183.098 70.1382 181.746 70.1382 184.18 70.003Z" fill="#796FB3"/>
<path fill-rule="evenodd" clip-rule="evenodd" d="M295.112 69.2366C294.075 69.1014 293.535 68.5154 293.084 67.7942C293.084 67.2984 292.858 67.0279 292.498 66.9378C291.596 66.6673 291.777 65.315 291.055 64.9093C291.055 64.8192 291.055 64.729 291.055 64.6389C291.055 64.4586 291.055 64.2332 291.055 64.0529C291.055 63.8726 291.055 63.6472 291.055 63.4669C290.74 63.2415 290.289 63.0612 289.613 63.1965C288.892 63.3317 288.982 62.6555 288.17 62.926C288.17 62.8358 288.17 62.7457 288.17 62.6555C287.584 61.9794 285.736 62.5654 284.7 62.3851C283.392 61.5737 282.671 60.1764 281.499 59.1847C281.229 59.1847 281.139 58.9593 280.913 58.9142C280.913 58.7339 280.913 58.5086 280.913 58.3282C280.913 58.1479 280.913 57.9226 280.913 57.7423C281.409 57.7423 281.905 57.7423 282.356 57.7423C282.716 57.7873 283.167 57.6972 283.212 58.0127C283.753 58.5536 285.601 59.2748 286.413 58.5987C286.413 58.5086 286.413 58.4184 286.413 58.3282C286.593 58.3282 286.818 58.3282 286.999 58.3282C287.404 58.0578 287.855 57.8324 288.17 57.4718C288.666 57.4718 288.937 57.2464 289.027 56.8858C289.838 56.2097 290.65 55.5786 291.371 54.8574C292.633 53.7305 296.014 54.4066 297.772 54.5869C298.313 54.5419 298.403 54.9025 298.944 54.8574C299.124 54.8574 299.304 54.9025 299.214 55.1279C299.349 55.4885 299.575 55.7138 300.071 55.7138C300.792 55.8491 301.423 56.1195 301.828 56.5703C302.955 57.4718 305.57 56.9309 307.057 57.4267C307.012 57.7873 307.102 57.9226 307.328 58.0127C307.553 58.0578 307.688 58.2381 307.598 58.5987C307.643 59.0495 307.463 59.7256 307.869 59.7707C308.229 59.8158 308.184 60.2214 308.139 60.6271C308.139 61.3033 308.139 61.9794 308.139 62.6555C308.139 62.8358 308.139 63.0612 308.139 63.2415C308.004 63.6021 307.824 63.9177 307.553 64.098C307.463 64.098 307.373 64.098 307.283 64.098C306.967 65.0446 306.652 67.5688 307.283 68.4703C307.373 68.4703 307.463 68.4703 307.553 68.4703C307.553 68.9662 307.598 69.3719 307.824 69.6423C307.373 70.7692 309.086 69.7325 308.996 70.4988C309.717 70.8594 310.348 71.265 310.754 71.9412C310.799 72.2567 311.069 72.3919 311.34 72.5272C312.196 73.1132 312.827 73.9696 312.511 75.7276C313.819 76.6291 317.064 77.0798 318.642 75.998C319.724 75.6374 320.084 74.5105 320.986 73.9696C321.391 73.7893 321.707 73.5188 321.842 73.1132C322.744 72.4821 323.014 71.1749 323.285 69.9128C324.051 69.8677 323.69 68.7859 324.457 68.7408C325.899 68.6506 327.432 68.6056 328.513 68.1548C328.513 68.0647 328.513 67.9745 328.513 67.8844C328.919 67.8844 329.145 67.7491 329.37 67.6139C330.001 67.5688 330.001 66.8927 329.956 66.1715C329.911 65.8109 330.001 65.6756 330.226 65.5855C331.038 64.3234 332.345 63.6472 333.427 62.6555C334.734 62.4302 335.185 63.0612 336.357 62.926C336.582 62.9711 336.943 62.926 336.943 63.1965C337.168 63.6472 337.664 63.8275 338.385 63.7824C338.926 63.8275 339.377 63.9627 339.557 64.3684C339.692 64.729 339.918 64.9544 340.414 64.9544C340.954 64.9093 341.045 65.315 341.585 65.2249C342.983 65.6756 344.02 66.4419 345.642 66.6673C345.642 66.7574 345.642 66.8476 345.642 66.9378C346.724 66.7575 346.769 67.5688 347.671 67.5237C347.761 67.8393 348.257 67.704 348.257 68.1097C349.023 68.6957 349.97 69.1014 351.187 69.2817C351.953 69.3268 352.584 69.462 352.945 69.8677C353.035 70.2734 353.666 70.0931 354.117 70.1382C354.162 70.4988 354.658 70.3635 354.973 70.4086C355.965 70.9495 366.738 70.634 367.91 70.9946C367.91 87.4022 367.91 105.703 367.91 122.066C367.73 122.066 358.714 120.082 358.759 119.857C358.669 119.451 358.038 119.632 357.587 119.586C357.407 119.586 357.182 119.586 357.001 119.586C356.911 119.226 356.506 119.136 356.415 118.73C356.145 118.324 356.145 117.648 355.559 117.558C354.117 115.8 352.404 114.313 350.601 112.915C348.572 111.924 343.929 112.149 342.171 113.186C342.171 113.276 342.171 113.366 342.171 113.456C341.45 113.321 341.54 113.997 340.729 113.727C338.565 113.366 333.021 114.899 334.328 111.969C334.373 111.743 334.328 111.383 334.599 111.383C335.59 110.121 336.537 108.858 337.799 107.912C337.799 107.506 338.295 107.641 338.385 107.326C338.565 107.326 338.791 107.326 338.971 107.326C340.414 107.551 341 106.83 342.442 107.055C342.397 106.605 342.532 105.974 342.171 105.883C341.991 105.207 341.225 105.117 340.999 104.441C340.999 101.691 342.036 100.294 340.143 98.8966C339.963 98.8966 339.782 98.8515 339.873 98.6261C339.873 98.4458 339.873 98.2205 339.873 98.0402C339.782 97.364 339.557 96.778 339.016 96.5977C338.926 96.5977 338.836 96.5977 338.746 96.5977C338.791 95.8765 338.295 95.6962 338.16 95.1553C338.16 95.0651 338.16 94.975 338.16 94.8848C336.988 93.6227 336.131 92.0901 334.689 91.0985C334.599 91.0985 334.509 91.0985 334.418 91.0985C334.328 91.0985 334.238 91.0985 334.148 91.0985C334.148 91.0083 334.148 90.9182 334.148 90.828C334.013 90.4674 333.787 90.242 333.292 90.242C332.751 90.2871 332.66 89.9265 332.12 89.9716C332.12 89.5659 331.624 89.7011 331.534 89.3856C330.902 88.3488 329.505 88.0784 327.747 88.2136C327.387 88.2587 327.251 88.1685 327.161 87.9431C326.575 87.4924 325.629 87.3572 324.547 87.3572C324.186 87.3121 323.735 87.4022 323.69 87.0867C323.42 86.6359 322.969 86.4556 322.248 86.5007C321.437 86.2303 320.49 86.1401 319.904 85.6443C319.183 85.1034 318.011 85.0132 316.704 85.0583C315.892 85.2837 315.937 84.6526 315.261 84.7878C315.036 84.3371 314.315 84.3821 313.819 84.2018C313.458 84.0666 313.143 83.8863 312.962 83.6159C311.655 83.3003 311.88 81.4071 310.934 80.6859C308.635 80.9564 307.508 80.0549 305.705 79.8295C305.435 79.4238 304.939 79.2435 304.533 78.973C301.738 77.2151 303.226 80.5507 302.505 81.903C301.693 83.3454 300.251 82.3087 298.448 82.1734C298.177 80.2352 297.907 78.2518 297.276 76.6291C297.186 76.6291 297.096 76.6291 297.005 76.6291C297.005 76.1332 296.96 75.7276 296.735 75.4571C296.735 75.367 296.735 75.2768 296.735 75.1867C296.329 75.0965 296.194 74.781 295.563 74.9162C295.022 74.9613 294.932 74.6007 294.391 74.6457C294.391 74.5556 294.391 74.4654 294.391 74.3753C294.391 74.2851 294.391 74.195 294.391 74.1048C293.489 73.9245 292.588 73.7442 292.633 72.6624C294.075 71.6707 298.313 73.4738 298.448 71.22C298.989 71.1749 298.628 70.2734 299.304 70.3635C299.8 70.3635 300.296 70.3635 300.747 70.3635C300.927 70.3635 301.152 70.3635 301.333 70.3635C301.423 70.3635 301.513 70.3635 301.603 70.3635C301.603 70.4537 301.603 70.5438 301.603 70.634C301.648 71.1298 303.586 71.1298 303.632 70.634C303.632 70.5438 303.632 70.4537 303.632 70.3635C303.902 70.3635 304.218 70.3635 304.488 70.3635C305.119 70.4988 306.111 69.5071 305.344 69.1916C305.344 68.9211 304.984 68.9662 304.758 68.9211C304.578 68.9211 304.398 68.876 304.488 68.6506C302.099 68.29 297.862 68.6506 295.473 69.2366C295.473 69.3268 295.473 69.4169 295.473 69.5071C295.338 69.2366 295.247 69.2366 295.112 69.2366Z" fill="#796FB3"/>
<path fill-rule="evenodd" clip-rule="evenodd" d="M9.42087 32.4997C9.7364 33.4012 11.2239 33.2209 11.4493 34.2577C11.4493 34.5281 11.4493 34.8437 11.4493 35.1141C10.8633 35.7001 10.8633 34.9789 10.2773 34.8437C10.2322 34.5281 9.96178 34.3929 9.69133 34.2577C9.46595 33.5364 8.56443 33.4914 7.66291 33.4012C7.25722 33.0857 5.36403 31.6883 6.80647 31.3728C7.34738 31.4179 7.79814 31.5531 7.97844 31.9588C8.11367 32.3194 8.33905 32.5448 8.83488 32.5448C9.01519 32.4997 9.24057 32.4997 9.42087 32.4997Z" fill="#796FB3"/>
<path fill-rule="evenodd" clip-rule="evenodd" d="M60.3116 46.2029C59.8158 46.2029 59.5453 45.9775 59.4552 45.6169C59.4552 45.5267 59.4552 45.4366 59.4552 45.3464C58.4184 45.4817 57.9677 45.1211 57.6972 44.49C59.6805 44.0392 60.1313 45.1661 60.8976 45.9324C60.8976 46.1578 60.537 46.1127 60.3116 46.2029Z" fill="#796FB3"/>
<path fill-rule="evenodd" clip-rule="evenodd" d="M63.8275 47.0593C63.2866 46.9241 63.1063 46.4283 62.3851 46.4733C62.0696 46.9241 62.0696 47.1946 62.3851 47.6453C62.9711 47.5101 63.1514 47.8256 63.5571 47.9158H64.4135C64.8192 47.5101 64.6389 47.0143 63.8275 47.0593Z" fill="#796FB3"/>
<path fill-rule="evenodd" clip-rule="evenodd" d="M26.5948 51.7021C26.73 51.3415 26.9554 51.1161 27.4512 51.1161C27.9471 51.1161 28.4429 51.1161 28.8937 51.1161C28.8486 51.3415 29.0289 51.3865 29.1641 51.3865C29.2092 52.1078 28.7134 52.2881 28.3077 52.5585C27.2259 52.874 27.3611 51.9275 26.8653 51.7021C26.7751 51.7021 26.685 51.7021 26.5948 51.7021Z" fill="#796FB3"/>
<path fill-rule="evenodd" clip-rule="evenodd" d="M95.3356 72.978C94.975 72.1666 94.1186 71.8961 93.3072 71.5355C93.2621 71.3102 93.0367 71.2651 93.0367 70.9495H92.4508C92.0902 70.8594 91.8648 70.8594 91.6394 70.9045C90.5125 70.6791 90.5125 71.6257 90.1068 72.1215C90.1519 72.3469 89.9716 72.392 89.8364 72.392C89.7462 72.8878 89.3405 73.0681 88.6644 72.978C89.2053 73.4287 90.9633 73.4738 90.1068 74.4204C90.4674 74.8712 91.5042 75.0965 92.3606 75.0064C93.2171 75.0515 94.1186 74.8712 94.4341 74.4204C94.7496 73.9246 95.6512 74.0598 95.3356 72.978Z" fill="#796FB3"/>
<path fill-rule="evenodd" clip-rule="evenodd" d="M18.1656 41.8305C18.5713 41.7854 18.977 41.7854 19.022 42.1009C20.4645 43.0475 21.6815 44.3097 22.8084 45.5718C22.8084 45.6619 22.8084 45.7521 22.8084 45.8422C23.5747 45.8873 23.2141 46.9691 23.9804 47.0142C23.9804 47.1945 24.0255 47.3748 24.2508 47.2847C24.3861 47.8256 25.0622 47.8256 24.8368 48.7271C22.0872 49.0426 20.4645 48.2313 19.608 46.6987C18.977 46.4733 18.8868 45.6619 18.4361 45.2562C18.4361 45.1661 18.4361 45.0759 18.4361 44.9858C18.1656 44.5801 18.1656 43.904 17.5796 43.8138C17.1739 43.8138 17.3092 43.318 16.9936 43.2278C16.9936 43.0475 16.9936 42.8221 16.9936 42.6418C16.9936 42.3714 16.9936 42.0559 16.9936 41.7854C17.3542 41.8305 17.7599 41.8305 18.1656 41.8305Z" fill="#796FB3"/>
<path fill-rule="evenodd" clip-rule="evenodd" d="M25.6933 54.632C25.4679 54.587 25.3327 54.4067 25.4228 54.0461C25.4228 53.7756 25.4228 53.4601 25.4228 53.1896C27.4963 52.7839 26.73 55.173 26.8653 56.6605C26.5948 57.0661 26.4145 57.562 25.6933 57.5169C25.6933 57.0211 25.6933 56.5252 25.6933 56.0745C26.1891 56.2097 26.1891 54.4968 25.6933 54.632Z" fill="#796FB3"/>
<path fill-rule="evenodd" clip-rule="evenodd" d="M73.4287 55.218C72.8878 55.2631 72.7976 54.9025 72.2567 54.9476C72.2567 54.8574 72.2567 54.7673 72.2567 54.6771C71.9863 54.2714 71.7609 53.8207 71.4003 53.5051C71.4003 53.3248 71.3552 53.1445 71.1298 53.2347C71.1298 53.1445 71.1298 53.0544 71.1298 52.9642C70.3635 53.1445 70.5889 52.3782 70.2734 52.1078C70.2734 51.8373 70.2734 51.5218 70.2734 51.2513C70.5438 51.2513 70.8594 51.2513 71.1298 51.2513C72.0314 51.5218 72.0764 52.6036 72.8878 53.0093C72.9329 53.3248 73.2033 53.4601 73.4738 53.5953C74.0147 53.7305 75.412 55.6237 73.4287 55.218Z" fill="#796FB3"/>
<path fill-rule="evenodd" clip-rule="evenodd" d="M70.4988 57.2464C70.1382 57.2013 69.6874 57.2915 69.6423 56.9759C69.3268 56.6153 68.831 56.435 69.0563 55.5335C70.1382 55.3532 71.0397 54.4968 71.4003 55.804C71.1298 56.2998 71.4003 57.3365 70.4988 57.2464Z" fill="#796FB3"/>
<path fill-rule="evenodd" clip-rule="evenodd" d="M82.7143 64.5037C83.075 64.5488 83.0299 64.9545 82.9848 65.3602C83.3003 67.0731 83.0299 69.3719 84.4272 70.003C84.9681 70.1382 85.1485 70.6341 85.8697 70.589C85.8697 70.6791 85.8697 70.7693 85.8697 70.8594C88.7545 71.4003 86.681 73.3837 87.8981 75.2318C87.0416 75.322 86.9966 74.5557 86.1401 74.6458C85.8246 74.4204 85.3738 74.2401 84.6977 74.3754C84.5174 74.3754 84.292 74.3754 84.1117 74.3754C83.7511 74.2401 83.4356 74.0598 83.2553 73.7894C83.2553 73.6992 83.2553 73.6091 83.2553 73.5189C81.7227 73.2935 81.903 71.4003 81.2268 70.3185C80.9564 70.3185 80.8662 70.0931 80.6409 70.0481C80.6409 69.6424 80.5056 69.417 80.3704 69.1916C80.0999 68.7859 79.6041 68.6056 79.1984 68.3352C78.6124 67.4787 75.7276 68.8761 76.2685 66.8928C76.9446 66.9829 77.3954 66.8477 77.7109 66.6223C77.7109 66.0363 77.7109 65.4503 77.7109 64.8643C77.9363 63.7825 79.3787 64.4136 79.4689 65.1348C79.4238 65.856 79.9196 66.0363 80.3253 66.3068C80.5958 64.9996 81.4522 62.9712 82.7143 64.5037Z" fill="#796FB3"/>
<path fill-rule="evenodd" clip-rule="evenodd" d="M31.5532 65.6757C31.1475 65.6757 30.7869 65.6757 30.3812 65.6757C30.291 65.0897 29.2994 65.4052 29.2092 64.8193C28.1725 63.7374 26.6849 63.1064 26.8653 60.7624C26.9103 60.537 26.8653 60.1764 27.1357 60.1764C27.4963 59.8609 28.1725 59.8609 28.8937 59.906C29.5698 60.4018 30.1558 60.9878 30.6516 61.6639C31.1024 62.2499 31.5982 62.8359 31.8236 63.6924C32.3194 64.1431 32.1842 65.4954 31.5532 65.6757Z" fill="#796FB3"/>
<path fill-rule="evenodd" clip-rule="evenodd" d="M35.8804 68.5605C36.3312 68.7859 36.5115 69.2817 36.4664 70.003C36.4214 70.3636 36.0157 70.3185 35.61 70.2734C35.2494 70.3185 35.1142 70.2283 35.024 70.003C35.024 69.9128 35.024 69.8226 35.024 69.7325C34.438 69.6423 34.2577 69.1465 33.852 68.8761C33.9873 68.245 33.6717 68.1098 33.5816 67.7041C34.9339 67.3885 35.2043 68.1999 35.8804 68.5605Z" fill="#796FB3"/>
<path fill-rule="evenodd" clip-rule="evenodd" d="M40.8388 74.1049C41.1994 74.1499 41.1543 74.5556 41.1093 74.9613C41.1093 75.4571 41.1093 75.9079 41.1093 76.4037C40.7036 76.4037 40.4782 76.2685 40.2528 76.1333C39.2611 75.2768 38.2244 74.4655 37.3229 73.5189C36.6918 72.7977 36.9623 71.22 37.9089 71.1749C38.6752 71.3552 38.9907 72.0314 39.3513 72.6174C39.757 73.2484 40.2528 73.7443 40.8388 74.1049Z" fill="#796FB3"/>
<path fill-rule="evenodd" clip-rule="evenodd" d="M49.4032 93.5777C48.8623 93.5326 48.4116 93.3974 48.2313 92.9917C48.096 92.5409 47.3297 92.7212 47.6453 91.8197C48.5919 91.6394 49.0877 91.9099 49.4032 92.4057C49.4934 92.7663 50.7104 93.6228 49.4032 93.5777Z" fill="#796FB3"/>
<path d="M51.2964 37.7737C51.1612 37.3229 50.8907 37.0074 50.7555 36.6017H49.5835C49.5385 37.0524 48.8623 36.8721 48.4116 36.8721C47.6904 36.9172 48.3665 37.8187 48.682 37.7286C50.0343 37.4581 49.9441 38.585 50.7104 38.9006C50.8457 38.8555 51.071 38.8555 51.2063 38.8104C51.657 38.8555 51.5669 38.3146 51.2964 37.7737Z" fill="#796FB3"/>
<path d="M204.96 54.6321C204.96 54.6321 204.69 55.759 206.222 55.2631C207.755 54.8124 208.116 54.2715 208.431 54.1362C208.747 54.001 209.738 53.7305 210.009 53.6404C210.324 53.5502 210.46 52.7389 210.144 52.6487C209.829 52.5586 208.927 52.5135 208.927 52.5135C208.927 52.5135 207.8 52.198 207.665 52.6487C207.53 53.0995 206.763 53.415 206.763 53.415C206.763 53.415 204.149 52.4233 204.96 54.6321Z" fill="#796FB3"/>
<path d="M218.844 61.3483C218.844 61.3483 218.934 60.1764 217.942 60.4468C216.951 60.7173 216.545 60.2214 215.463 59.9961C214.381 59.7707 212.308 61.123 213.299 62.2048C214.291 63.2866 215.283 62.6555 215.283 62.6555L217.176 61.8442L217.807 62.1597C217.852 62.0695 219.024 62.34 218.844 61.3483Z" fill="#796FB3"/>
<path d="M217.356 64.0529C217.356 64.0529 216.725 63.7825 216.365 64.1431C216.004 64.5037 215.779 65.3151 215.779 65.3151H217.041L217.446 65.0446C217.446 65.0897 217.852 64.0529 217.356 64.0529Z" fill="#796FB3"/>
<path d="M215.418 84.7428C215.418 84.7428 214.066 84.5175 213.885 85.8247C213.75 87.1319 213.885 87.0868 213.75 87.7179C213.615 88.3489 212.849 90.8281 212.849 90.8281C212.849 90.8281 212.894 90.8281 212.353 91.7296C211.812 92.6311 211.451 92.9467 211.451 93.2622C211.451 93.5777 212.127 94.5243 213.029 94.1637C213.93 93.8031 214.471 92.4508 214.787 92.1804C215.102 91.9099 216.004 91.9099 216.004 91.9099C216.004 91.9099 216.68 92.0451 216.5 91.369C216.365 90.6929 216.139 91.0084 216.004 90.4675C215.824 89.9266 215.553 89.3857 215.553 89.3857C215.553 89.3857 215.688 88.6194 216.094 88.1235C216.455 87.6728 218.663 85.9599 215.418 84.7428Z" fill="#796FB3"/>
<path d="M212.218 86.681C212.218 86.681 213.029 87.0416 212.984 87.7628C212.894 88.484 212.668 89.8814 212.668 89.8814C212.668 89.8814 211.857 90.7829 211.406 91.2337C210.955 91.6393 210.82 91.9549 210.505 91.9549C210.189 91.9549 209.017 92.4958 208.792 91.9549C208.521 91.414 208.972 90.0617 209.152 89.7462C209.288 89.4306 209.603 88.7094 209.603 88.7094C209.603 88.7094 209.964 88.0333 210.099 87.6276C210.279 87.1317 211.181 86.095 212.218 86.681Z" fill="#796FB3"/>
<path d="M207.62 89.5659C207.62 89.5659 205.772 89.5208 205.501 90.1068C205.231 90.6928 206.222 92.3606 206.222 92.3606L206.673 92.6761H207.214C207.259 92.6761 208.882 92.0901 207.62 89.5659Z" fill="#796FB3"/>
<path d="M195.99 96.3273C195.99 96.3273 195.675 94.5693 195.179 94.5693C194.638 94.5693 194.097 94.6144 194.007 95.2455C193.917 95.8765 194.007 96.8231 194.007 97.2288C194.007 97.6345 194.097 98.1303 194.097 98.1303C194.097 98.1303 194.322 98.5811 194.413 98.8966C194.503 99.2122 194.458 99.3474 194.818 99.2572C195.179 99.1671 195.675 98.8966 195.449 98.1303C195.224 97.364 195.134 96.5978 195.134 96.5978C195.134 96.5978 195.99 97.2739 195.99 96.3273Z" fill="#796FB3"/>
<path d="M197.433 103.765C197.433 103.765 196.576 103.179 196.261 103.179C195.945 103.179 195.359 103.449 195.359 103.449L196.171 104.486C196.171 104.486 196.125 104.486 196.486 104.621C196.892 104.802 197.793 104.982 197.433 103.765Z" fill="#796FB3"/>
<path d="M199.777 106.199C199.777 106.199 199.236 105.748 198.65 105.613C198.064 105.478 197.433 105.072 197.388 105.478C197.297 105.883 196.756 105.838 197.748 106.244C198.74 106.605 199.055 106.875 199.055 106.875L199.822 106.965C199.777 106.92 200.272 106.74 199.777 106.199Z" fill="#796FB3"/>
<path d="M205.727 106.199C205.727 106.199 204.69 105.658 204.329 105.838C204.014 106.019 204.194 106.65 204.194 106.65L204.915 106.83H205.546C205.501 106.83 206.222 106.424 205.727 106.199Z" fill="#796FB3"/>
<path d="M242.418 20.0137C242.418 20.0137 243.049 18.9769 242.869 18.3008C242.644 17.6247 241.291 16.9485 241.156 17.5345C241.021 18.1205 240.931 18.9769 241.021 19.2925C241.111 19.608 241.517 19.8334 241.517 20.1038C241.517 20.3743 241.382 21.3209 241.382 21.3209C241.382 21.3209 239.579 21.7716 240.39 22.4027C241.201 23.0338 242.554 23.2141 242.554 23.2141C242.554 23.2141 243.951 22.6732 242.418 20.0137Z" fill="#796FB3"/>
<path d="M245.754 16.9486C245.754 16.9486 244.221 16.047 244.176 16.8584C244.086 17.7149 246.295 19.3827 245.754 16.9486Z" fill="#796FB3"/>
<path d="M234.124 26.0088C234.124 26.0088 233.448 25.2876 233.223 24.7016C232.998 24.1156 232.457 23.6198 231.871 23.6648C231.285 23.7099 230.789 23.8001 231.014 24.341C231.285 24.8819 232.231 25.7834 232.366 26.0989C232.502 26.4595 234.26 26.8652 234.26 26.8652L234.124 26.0088Z" fill="#796FB3"/>
<path d="M232.051 31.2377C232.051 31.2377 232.231 30.6066 231.42 30.4714C230.609 30.3361 230.068 30.2911 230.518 30.7869C230.924 31.3278 231.961 32.5899 232.051 31.2377Z" fill="#796FB3"/>
<path d="M232.186 34.2127C232.186 34.2127 231.69 33.2661 231.33 33.9422C231.014 34.6184 232.051 35.024 232.186 34.2127Z" fill="#796FB3"/>
<path d="M231.6 36.4214C231.6 36.4214 230.924 35.1593 230.563 35.9706C230.158 36.8271 231.375 37.368 231.6 36.4214Z" fill="#796FB3"/>
<path d="M297.772 89.6109C297.772 89.6109 296.78 92.5409 296.239 92.586C295.743 92.631 294.707 92.3155 294.571 93.3973C294.436 94.4791 295.428 95.7413 296.825 94.5242C298.222 93.3072 298.944 91.7746 298.944 89.9716C298.989 88.1685 297.772 89.6109 297.772 89.6109Z" fill="#796FB3"/>
<path d="M246.25 63.6472C246.25 63.6472 239.714 63.9177 239.083 63.512C238.452 63.0612 235.927 62.0696 234.53 62.0696C233.133 62.0696 231.059 63.1063 231.735 63.8275C232.412 64.5037 234.079 64.6389 234.71 64.6389C235.341 64.6389 236.784 64.5488 237.145 64.5488C237.505 64.5488 238.812 64.4586 239.128 64.4586C239.443 64.4586 243.004 64.5938 243.004 64.5938L243.365 65.0897C243.365 65.0897 243.906 66.487 243.951 66.8026C244.041 67.1181 244.221 68.1098 244.762 68.2901C245.303 68.4704 245.078 66.5321 245.078 66.5321C245.078 66.5321 244.357 65.4503 244.853 65.315C245.348 65.1798 245.078 65.27 246.16 64.9995C247.332 64.7741 248.504 63.8726 246.25 63.6472Z" fill="#796FB3"/>
<path d="M254.409 75.9529C254.409 75.9529 253.372 74.6006 252.831 74.0597C252.29 73.5188 253.507 72.7976 251.208 72.7976C248.909 72.7976 245.889 71.6707 245.529 72.9779C245.168 74.2851 244.582 74.8711 245.078 75.3219C245.529 75.7726 247.061 77.215 247.602 77.3953C248.188 77.5757 249.135 78.1166 249.676 78.2969C250.217 78.4772 251.884 78.2969 251.884 78.2969C251.884 78.2969 254.724 77.4404 254.409 75.9529Z" fill="#796FB3"/>
<path d="M254.904 78.3419C254.904 78.3419 254.048 77.801 253.552 78.5222C253.101 79.2435 254.409 80.4154 254.904 78.3419Z" fill="#796FB3"/>
<path d="M260.404 37.8638C260.404 37.8638 259.367 36.5566 259.773 35.655C260.178 34.7535 261.666 33.9872 261.666 33.9872C261.666 33.9872 261.305 34.8887 262.477 35.1592C263.649 35.4297 264.37 34.8437 264.776 33.852C265.182 32.8603 266.128 31.8687 266.128 31.8687L265.137 31.0573L264.145 30.6516L263.063 31.0122C263.063 31.0122 262.162 31.463 261.936 32.1391C261.711 32.8153 260.9 33.1759 260.9 33.1759C260.9 33.1759 260.674 32.9054 259.232 34.1675C257.789 35.4297 256.978 36.5566 256.978 36.5566C256.978 36.5566 256.707 38.6301 256.662 38.9456C256.572 39.2611 255.986 39.9823 255.851 40.4782C255.716 40.974 256.031 42.732 256.031 42.732C256.031 42.732 256.978 42.8221 257.744 42.5517C258.51 42.2812 259.412 41.5149 259.728 41.1092C260.088 40.7035 260.449 40.4331 260.629 39.3062C260.764 38.2244 260.404 37.8638 260.404 37.8638Z" fill="#796FB3"/>
<path d="M265.723 39.4414C265.723 39.4414 264.596 37.6834 263.829 38.2243C263.063 38.7653 261.936 40.2528 261.936 40.2528L260.359 42.0107C260.359 42.0107 259.818 43.0475 259.457 43.2278C259.096 43.4081 258.375 43.7236 257.879 43.949C257.384 44.2194 256.076 44.2194 256.076 44.2194C256.076 44.2194 254.364 42.5066 254.364 43.6785C254.364 44.8054 255.13 45.2111 255.536 45.4365C255.896 45.6619 256.662 46.0676 257.293 46.8789C257.925 47.6903 257.97 47.0592 258.195 47.9607C258.42 48.8623 258.42 49.4933 258.42 49.4933L258.195 50.3047C258.195 50.3047 257.834 49.8539 257.925 50.7555C258.015 51.657 258.601 53.0093 259.908 54.2263C261.215 55.3983 261.666 55.8941 261.801 56.4801C261.936 57.0661 262.342 56.8858 262.342 57.3816C262.342 57.8775 263.063 58.824 263.063 58.824C263.063 58.824 263.424 56.7956 263.424 56.1646C263.424 55.5335 261.26 54.9024 261.035 53.8657C260.809 52.8289 259.908 50.8907 259.908 50.5752V48.9524C259.908 48.9524 259.547 47.0592 260.314 46.9691C261.08 46.8789 261.26 47.2846 262.748 47.6452C264.19 47.9607 265.001 48.2312 265.001 48.2312C265.001 48.2312 266.759 49.1327 266.759 48.2312C266.759 47.3297 266.759 46.6986 266.218 46.6535C265.633 46.5634 262.567 45.0759 262.567 45.0759C262.567 45.0759 261.936 44.6251 262.973 43.7236C264.01 42.8221 265.452 43.2729 266.173 42.2812C266.85 41.1543 266.85 40.8838 265.723 39.4414Z" fill="#796FB3"/>
<path d="M257.384 53.2347C257.384 53.2347 256.798 52.243 255.04 52.5135C253.327 52.7839 253.417 51.2063 252.921 52.6036C252.425 54.001 254.499 54.4968 254.499 54.4968C254.499 54.4968 253.417 56.2097 254.318 56.2097C255.22 56.2097 255.49 55.3983 256.031 55.8491C256.617 56.2998 256.707 56.5703 257.925 56.8407C259.187 57.1112 260.223 56.39 260.223 56.39C260.223 56.39 258.556 54.7673 257.654 54.9476C256.798 55.1279 258.465 54.046 257.384 53.2347Z" fill="#796FB3"/>
<path d="M256.031 49.2679C256.031 49.2679 255.22 48.3664 255.04 48.8623C254.859 49.3581 256.167 50.2596 256.167 50.2596L256.662 50.485C256.707 50.485 257.789 49.5835 256.031 49.2679Z" fill="#796FB3"/>
<path d="M261.17 62.6555C261.17 62.6555 261.486 62.2048 260.854 61.4385C260.268 60.6722 259.277 60.1764 259.277 60.1764C259.277 60.1764 258.601 60.1313 258.465 59.8158C258.33 59.5002 257.97 59.5904 257.879 59.1847C257.789 58.779 258.285 58.5536 257.564 58.4184C256.798 58.2832 256.257 59.0945 256.257 59.0945V59.6805C256.257 59.6805 256.121 60.1764 255.806 60.1764C255.49 60.1764 253.778 59.5002 253.778 59.8158C253.778 60.1764 254.859 61.0328 255.355 61.3483C255.806 61.6639 256.257 62.3851 256.257 62.3851C256.257 62.3851 257.158 63.0612 258.33 63.1964C259.412 63.4218 261.035 63.7374 261.17 62.6555Z" fill="#796FB3"/>
<path d="M281.815 79.3337C282.04 79.0633 283.347 77.4405 281.094 75.367C278.84 73.2935 279.561 72.7526 279.561 72.7526C279.561 72.7526 278.434 72.392 277.578 72.5723C276.766 72.7526 275.684 72.7526 275.684 72.7526L274.918 71.8511L272.709 70.7693H271.537C271.087 70.7693 270.681 70.9947 270.23 71.4003C269.825 71.8511 269.239 72.1666 269.239 72.1666L268.698 72.2568L267.931 71.4905C267.931 71.4905 265.768 71.2651 265.362 71.2651C264.956 71.2651 263.243 71.3553 262.567 71.4003C261.891 71.4905 261.17 71.9863 261.17 71.9863L260.764 72.7076C260.764 72.7076 259.908 73.3837 259.367 73.6091C258.826 73.8345 258.42 73.6992 257.879 74.15C257.339 74.6007 256.121 74.781 256.978 75.5023C257.789 76.2235 258.691 75.322 259.006 75.322C259.322 75.322 257.429 75.5023 259.998 75.0515C262.567 74.6007 262.387 73.6992 262.703 74.6007C263.063 75.5023 263.153 75.953 263.153 75.953L261.981 76.9447C261.981 76.9447 261.305 76.9898 261.08 77.3053C260.854 77.6208 259.773 78.2068 260.854 78.342C261.891 78.4773 263.514 77.6659 263.514 77.6659C263.514 77.6659 264.28 77.4856 264.641 77.3053C265.001 77.125 266.399 75.953 266.399 75.953L266.94 74.9163C266.94 74.9163 267.436 74.4655 267.751 74.781C268.067 75.0966 268.833 75.9079 269.599 76.0882C270.365 76.2686 272.033 76.0882 272.033 76.0882L272.935 75.8629L276.135 76.2686L278.209 77.7561L279.426 78.297C279.426 78.2519 280.913 80.2803 281.815 79.3337Z" fill="#796FB3"/>
<path d="M325.493 62.4753C325.493 62.4753 322.203 62.1146 320.4 62.0245C318.597 61.8893 317.244 61.8893 316.433 62.2499C315.622 62.6105 315.126 63.0612 316.974 63.512C318.822 63.9628 320.535 63.9628 321.211 64.4135C321.887 64.8643 319.949 64.7741 323.014 65.4503C326.079 66.1264 326.53 65.5855 326.891 64.5487C327.161 63.512 328.649 62.926 325.493 62.4753Z" fill="#796FB3"/>
<path d="M322.293 58.5086L321.482 57.2464L318.326 54.8574C318.326 54.8574 315.487 54.632 315.622 55.218C315.757 55.804 317.425 57.9226 317.876 58.3733C318.326 58.8241 319.453 59.5002 320.265 59.5002C321.031 59.5453 321.617 59.9961 322.293 58.5086Z" fill="#796FB3"/>
<path d="M313.007 59.0946C313.007 59.0946 313.007 57.8325 312.106 57.7423C311.204 57.6071 310.708 58.1931 310.708 58.1931L311.565 59.32C311.52 59.32 312.872 59.8609 313.007 59.0946Z" fill="#796FB3"/>
<path d="M315.261 60.7624C315.261 60.7624 314.45 60.4469 314.134 61.2583C313.774 62.0245 316.388 61.9344 315.261 60.7624Z" fill="#796FB3"/>
<path d="M310.934 98.4459C310.934 98.4459 310.708 97.9951 311.069 96.2823C311.43 94.5694 311.745 93.8031 311.745 93.2171C311.745 92.6311 311.61 91.955 311.61 91.955C311.61 91.955 309.672 90.0167 309.131 90.6027C308.545 91.1887 308.319 92.2254 307.779 92.5409C307.193 92.8565 306.877 94.5694 306.201 95.4709C305.525 96.3724 305.525 96.733 305.525 97.4091V99.3925C305.525 99.9334 304.488 101.736 305.885 101.827C307.193 101.962 311.385 101.286 310.934 98.4459Z" fill="#796FB3"/>
<path d="M282.491 53.6403C282.491 53.6403 282.987 53.4149 283.843 53.5051C284.745 53.6403 286.322 53.2797 286.322 53.2797C286.322 53.2797 286.999 52.9191 285.962 52.1528C284.97 51.3414 282.806 49.7638 282.085 49.7638H279.831C279.831 49.7638 277.668 51.1161 277.668 51.5668C277.668 52.0176 277.307 52.4684 278.254 53.1445C279.155 53.8206 279.155 54.5418 279.155 54.5418C279.155 54.5418 280.102 56.7055 282.491 53.6403Z" fill="#796FB3"/>
<path d="M278.885 63.6472C278.885 63.6472 279.245 62.7457 277.623 62.7457C276.045 62.7457 274.918 63.1063 274.918 63.1063L273.791 64.1431C273.791 64.1431 272.754 65.0446 273.656 65.6306C274.558 66.2166 276.947 66.5321 276.947 66.5321L277.983 65.9461C277.983 65.901 279.786 64.7741 278.885 63.6472Z" fill="#796FB3"/>
<path d="M272.98 50.5301C272.98 50.5301 270.591 49.6285 270.365 50.3047C270.14 50.9808 272.394 52.6937 272.98 50.5301Z" fill="#796FB3"/>
</svg>
